# xmcd
#
# Track frame offsets:
#	150
#	14224
#	27908
#	39618
#	54873
#	69769
#	85032
#	97220
#	110797
#	125493
#	139977
#	155676
#	168256
#	180103
#	193181
#	207110
#	220709
#	233939
#	247163
#	259852
#	272416
#	286983
#	300351
#	313323
#	327724
#
# Disc length: 4549 seconds
#
# Revision: 1
# Processed by: cddbd v1.5.1PL0 Copyright (c) Steve Scherf et al.
# Submitted via: audiograbber 1.83.01
#
DISCID=7211c319
DTITLE=Various Artist - The Paramount Masters - CD 4/4
DYEAR=1900
DGENRE=Blues
TTITLE0=Freddie Spruell - Tom Cat Blues
TTITLE1=Jack O'Diamonds - Smiling Blues
TTITLE2=Papa Charlie Jackson - Mama, Don't You Think I Know
TTITLE3=Charlie Spand - Back to the Woods Blues
TTITLE4=Alice Moore - Prison Blues
TTITLE5=Henry Brown - Deep Morgan Blues
TTITLE6=Teddy Darby - My Laona Blues
TTITLE7=Bo Weevil Jackson - Pistol Blues
TTITLE8=Jabo Williams - Pratt City Blues
TTITLE9=J.D. Short - Telephone Arguin' Blues
TTITLE10=Elvie Thomas - Over to My House
TTITLE11=Ed Bell - Hambone Blues
TTITLE12=Lonnie Clark - Down In Tennessee
TTITLE13=Rube Lacy - Ham Hound Crave
TTITLE14=Roosevelt Sykes - Fire Detective Blues
TTITLE15=Edward Thompson - Up on the Hill Blues
TTITLE16=Mary Johnson - Key to the Mountain Blues
TTITLE17=King Solomon Hill - Down on My Bended Knee
TTITLE18=Charlie 'Dad' Nelson - Red River Blues
TTITLE19=Piano Kid Edwards - Give Us Another Jug
TTITLE20=Blind Joe Reynolds - Nehi Blues
TTITLE21=Ruby Paul - Last Farewell Blues
TTITLE22=Barrel House Welch - Larceny Woman Blues
TTITLE23=Robert Peeples - Wicked Devil's Blues
TTITLE24=William Moore - Raggin' the Blues
EXTD=JSP7723D
EXTT0=
EXTT1=
EXTT2=
EXTT3=
EXTT4=
EXTT5=
EXTT6=
EXTT7=
EXTT8=
EXTT9=
EXTT10=
EXTT11=
EXTT12=
EXTT13=
EXTT14=
EXTT15=
EXTT16=
EXTT17=
EXTT18=
EXTT19=
EXTT20=
EXTT21=
EXTT22=
EXTT23=
EXTT24=
PLAYORDER=
